<svg xmlns="http://www.w3.org/2000/svg" viewBox="0 0 500 500"><g id="freepik--Device--inject-157"><rect x="370.22" y="224.1" width="67.71" height="127.9" rx="7.67" transform="translate(140.35 -132.3) rotate(22.41)" style="opacity:0.2"></rect><rect x="372.46" y="224.1" width="67.71" height="127.9" rx="7.67" transform="translate(140.52 -133.16) rotate(22.41)" style="fill:#fff;stroke:#263238;stroke-linecap:round;stroke-linejoin:round"></rect><rect x="375.47" y="238.15" width="61.69" height="99.81" transform="translate(140.52 -133.16) rotate(22.41)" style="fill:#263238;stroke:#263238;stroke-linecap:round;stroke-linejoin:round"></rect><line x1="387.04" y1="301.69" x2="372.05" y2="306.25" style="fill:none;stroke:#8a8a8a;stroke-linecap:round;stroke-linejoin:round"></line><line x1="439.02" y1="285.87" x2="391.63" y2="300.29" style="fill:none;stroke:#8a8a8a;stroke-linecap:round;stroke-linejoin:round"></line><line x1="411.25" y1="289.2" x2="414.56" y2="288.2" style="fill:none;stroke:#8a8a8a;stroke-linecap:round;stroke-linejoin:round"></line><line x1="377.87" y1="299.26" x2="407.19" y2="290.42" style="fill:none;stroke:#8a8a8a;stroke-linecap:round;stroke-linejoin:round"></line><path d="M434.21,238l-12.4-5.11a.91.91,0,0,1-.5-1.19h0a.91.91,0,0,1,1.19-.5l12.4,5.11a.92.92,0,0,1,.5,1.2h0A.91.91,0,0,1,434.21,238Z" style="fill:#263238"></path><path d="M388.52,340.79a3.66,3.66,0,1,0-4.78,2A3.66,3.66,0,0,0,388.52,340.79Z" style="fill:#fff;stroke:#263238;stroke-miterlimit:10;stroke-width:0.704333px"></path><rect x="383.29" y="337.54" width="3.71" height="3.71" transform="translate(158.49 -121.21) rotate(22.41)" style="fill:#263238"></rect></g><g id="freepik--Letter--inject-157"><rect x="157.13" y="176.35" width="158.38" height="217.46" transform="translate(-57.44 59.64) rotate(-12.84)" style="fill:#407BFF;stroke:#263238;stroke-miterlimit:10"></rect><rect x="160.73" y="181.3" width="151.18" height="207.58" transform="translate(-57.44 59.64) rotate(-12.84)" style="fill:#fff;stroke:#263238;stroke-linecap:round;stroke-linejoin:round"></rect><line x1="242.1" y1="195.84" x2="280.92" y2="186.13" style="fill:none;stroke:#263238;stroke-linecap:round;stroke-linejoin:round"></line><line x1="157.25" y1="217.05" x2="174.87" y2="212.65" style="fill:none;stroke:#263238;stroke-linecap:round;stroke-linejoin:round"></line><line x1="285" y1="227.9" x2="290.86" y2="226.44" style="fill:none;stroke:#263238;stroke-linecap:round;stroke-linejoin:round"></line><line x1="258.28" y1="234.58" x2="281.75" y2="228.71" style="fill:none;stroke:#263238;stroke-linecap:round;stroke-linejoin:round"></line><line x1="244.65" y1="237.99" x2="254.41" y2="235.55" style="fill:none;stroke:#263238;stroke-linecap:round;stroke-linejoin:round"></line><line x1="217" y1="244.9" x2="240.31" y2="239.07" style="fill:none;stroke:#263238;stroke-linecap:round;stroke-linejoin:round"></line><line x1="199.19" y1="249.36" x2="212.9" y2="245.93" style="fill:none;stroke:#263238;stroke-linecap:round;stroke-linejoin:round"></line><line x1="167.19" y1="257.36" x2="194.85" y2="250.44" style="fill:none;stroke:#263238;stroke-linecap:round;stroke-linejoin:round"></line><line x1="275.84" y1="243.58" x2="295.83" y2="238.58" style="fill:none;stroke:#263238;stroke-linecap:round;stroke-linejoin:round"></line><line x1="234.4" y1="253.94" x2="271.27" y2="244.72" style="fill:none;stroke:#263238;stroke-linecap:round;stroke-linejoin:round"></line><line x1="206.13" y1="261.01" x2="227.74" y2="255.61" style="fill:none;stroke:#263238;stroke-linecap:round;stroke-linejoin:round"></line><line x1="172.15" y1="269.5" x2="202.18" y2="262" style="fill:none;stroke:#263238;stroke-linecap:round;stroke-linejoin:round"></line><line x1="285.21" y1="255.04" x2="298.04" y2="251.83" style="fill:none;stroke:#263238;stroke-linecap:round;stroke-linejoin:round"></line><line x1="249.89" y1="263.87" x2="281.18" y2="256.05" style="fill:none;stroke:#263238;stroke-linecap:round;stroke-linejoin:round"></line><line x1="241.91" y1="265.87" x2="246.94" y2="264.61" style="fill:none;stroke:#263238;stroke-linecap:round;stroke-linejoin:round"></line><line x1="218.13" y1="271.81" x2="238.35" y2="266.76" style="fill:none;stroke:#263238;stroke-linecap:round;stroke-linejoin:round"></line><line x1="181.5" y1="280.97" x2="214.96" y2="272.6" style="fill:none;stroke:#263238;stroke-linecap:round;stroke-linejoin:round"></line><line x1="174.36" y1="282.75" x2="178.56" y2="281.71" style="fill:none;stroke:#263238;stroke-linecap:round;stroke-linejoin:round"></line><line x1="274.03" y1="271.23" x2="300.8" y2="264.53" style="fill:none;stroke:#263238;stroke-linecap:round;stroke-linejoin:round"></line><line x1="229.34" y1="282.4" x2="269.23" y2="272.43" style="fill:none;stroke:#263238;stroke-linecap:round;stroke-linejoin:round"></line><line x1="218.19" y1="285.19" x2="225.16" y2="283.44" style="fill:none;stroke:#263238;stroke-linecap:round;stroke-linejoin:round"></line><line x1="177.12" y1="295.45" x2="212.76" y2="286.54" style="fill:none;stroke:#263238;stroke-linecap:round;stroke-linejoin:round"></line><line x1="246.51" y1="291.5" x2="250.56" y2="290.48" style="fill:none;stroke:#263238;stroke-linecap:round;stroke-linejoin:round"></line><line x1="213.67" y1="299.71" x2="242.48" y2="292.5" style="fill:none;stroke:#263238;stroke-linecap:round;stroke-linejoin:round"></line><line x1="179.88" y1="308.15" x2="209.02" y2="300.87" style="fill:none;stroke:#263238;stroke-linecap:round;stroke-linejoin:round"></line></g><g id="freepik--hand-2--inject-157"><path d="M347.76,372.22c-1.09-13.05-9.24-42.4-20.11-46.21-6.73-2.35-23.73,4.81-35.7,10.62,1-4.43,1.69-8.83,1.69-8.83L260.3,293l.47,4.51,11.91,31.32s-4.66,5.17-3.63,7,7.77,3.1,7.77,3.1-2.07.52-.78,3.88a27.82,27.82,0,0,0,4.14,6.73l.36-.16a16.4,16.4,0,0,0,2.23,2c6.52,4.9,7.91,5.11,7.91,5.11s2.72-.55,3.81,13.59-3.27,19,3.8,27.72,59.25,68,59.25,68S348.85,385.27,347.76,372.22Z" style="opacity:0.2"></path><path d="M290.17,303.09s-6.41,7-11.65,10.48-8.89,8.11-4.07,10.47c2.89,1.42,7-.58,7-.58s-6.4,1.75-7.56,7.57,11.64,3.49,11.64,3.49-9.32,6.41-6.4,8.74,8.73.58,11.64.58,17.46-9.32,21-9.32,10.48,7.57,10.48,13.39,9.31,5.24,10.47-12.8-3.49-33.19-11.06-37.85S290.17,303.09,290.17,303.09Z" style="fill:#fff;stroke:#263238;stroke-linecap:round;stroke-linejoin:round"></path><path d="M286.67,322.88l23.24-8.68s10.2-2.22,17.52,9.84" style="fill:none;stroke:#263238;stroke-linecap:round;stroke-linejoin:round"></path><path d="M290.75,329.87l21-3.5s9.31-.58,15.13,10.48" style="fill:none;stroke:#263238;stroke-linecap:round;stroke-linejoin:round"></path><path d="M428.7,455.32c-12.81-12.27-67-59.39-67.51-62.58-.58-3.49-2.91-44.24-2.91-50.07s-11.64-19.79-11.64-19.79-4.78-6.85-7.11-18.49-13-16.43-18.84-15.85-21.79,2.32-28.19,7-12.23,10.48-6.41,12.22c9.67,2.9,25.5-10,33.13-1.08,3.49,4.08,7.62,22,8.21,24.37a7.49,7.49,0,0,1-2.19,6.76,67.54,67.54,0,0,1-8.88,6s-9.46,2.79-13.54,3.13-4.08,20,.34,25.81,10.87,32.61,16.3,39.41C324.64,418.66,371,488,371,488" style="fill:#fff;stroke:#263238;stroke-linecap:round;stroke-linejoin:round"></path><path d="M258,290.05a.53.53,0,0,1,.7-.07l2.81,1.26A1.08,1.08,0,1,1,260.3,293l-2.2-2.15a.54.54,0,0,1-.13-.75Z" style="fill:#263238;stroke:#263238;stroke-linecap:round;stroke-linejoin:round"></path><path d="M260.48,291.65a2.47,2.47,0,0,1,3.21-.34l7.46,3.85,73.23,48.18a5.79,5.79,0,1,1-6.61,9.5l-71.08-52.43-5.82-5.05a2.46,2.46,0,0,1-.61-3.43A1.51,1.51,0,0,1,260.48,291.65Z" style="fill:#407BFF;stroke:#263238;stroke-linecap:round;stroke-linejoin:round"></path><path d="M344.38,343.34l-21.13-13.91a8,8,0,0,0-5.78,7.49,8.42,8.42,0,0,0,.08,1l20.22,14.91a5.79,5.79,0,1,0,6.61-9.5Z" style="fill:#263238;stroke:#263238;stroke-linecap:round;stroke-linejoin:round"></path><path d="M317.77,409.13c-23-26-19.17-40.36-22.67-45s-5.57-9-9.06-19.51-5.77-18.81-5.77-27.54,7.5-10.24,13.32-.93,12.88,23.63,12.88,23.63,4.65,5.82,14,4.08" style="fill:#fff;stroke:#263238;stroke-linecap:round;stroke-linejoin:round"></path><path d="M306.47,339.76S313,345.93,316,351" style="fill:none;stroke:#263238;stroke-linecap:round;stroke-linejoin:round"></path><path d="M287.57,313.41l1.94,3.89s-.44,0-3.54,1.78a12.67,12.67,0,0,0-4.54,4.38s-3-8.37-.34-11a4.26,4.26,0,0,1,2.42-1.26A4,4,0,0,1,287.57,313.41Z" style="fill:#fff;stroke:#263238;stroke-linecap:round;stroke-linejoin:round"></path><path d="M295.88,334.6l.94-.11" style="fill:none;stroke:#263238;stroke-linecap:round;stroke-linejoin:round"></path><path d="M287.16,339.43s.54-3.18,6.94-4.53" style="fill:none;stroke:#263238;stroke-linecap:round;stroke-linejoin:round"></path><path d="M294.13,337.19s-.45,1.34-4.94,3.14" style="fill:none;stroke:#263238;stroke-linecap:round;stroke-linejoin:round"></path><path d="M293.94,332.91a14.81,14.81,0,0,0-6.23,2.54" style="fill:none;stroke:#263238;stroke-linecap:round;stroke-linejoin:round"></path></g><g id="freepik--hand-1--inject-157"><path d="M170.28,252.17s-4.08,11.33-5.71,14.05-10.33,13-12,15.76-4.9,11.42-4.9,11.42l26.41-6.68s-7.38,11-11.73,16.46S148.8,320,148.8,321.67s-2.17,8.15-2.17,8.15l12.5,9.24,25.55-9.24L195,326s-20.66,13.05-27.18,19.57-29.36,19.57-35.34,23.92S114,376,109.12,377.11,61.28,413,61.28,413l62-127.2,17.94-29.9L157,244.48l-1.63,17.93Z" style="opacity:0.2"></path><path d="M36.5,439.4l65.26-67.15A84.81,84.81,0,0,0,118,368.41c10-3.25,13-4.13,17.72-7.67s24.22-13.88,32.48-19.2,22.74-11.22,25.4-13.59.59-5.31-6.49-6.79-14.18.3-23.63,4.43-19.2,7.68-18.9,5.61,2.07-12.4,3.84-15.94,19.5-22.63,19.79-23.52,2.37-1.77,5.91-5,9.16-7.08,10-12.7-3.54-3.54-5.31-2.65-14.18,6.2-17.43,8.27-22.21,22.05-22.21,22.05l13.35-28a43.22,43.22,0,0,0,4.73-5c1.77-2.36,12.4-13.88,13-16.54a4.39,4.39,0,0,0-5.31-5c-3.25.89-13.46,9.91-16.84,12.4-7,5.18-18.31,24.81-18.31,24.81l12.41-22.74s9.45-8.56,11.81-11.22,5.21-8.54,2.66-11.22c-2.71-2.85-8.58,1.94-13,6.49-4.06,4.19-10,9.45-10,9.45s3.55-4.13,2.66-7.67-7.68,1.47-9.74,2.06-19.79,16.25-22.45,18.31-8.21,19-8.21,19L74.46,331.62,10,378" style="fill:#fff;stroke:#263238;stroke-linecap:round;stroke-linejoin:round"></path><path d="M133.66,255.12,125,262.61a12,12,0,0,0-2.39,2.83L107.23,290.6" style="fill:none;stroke:#263238;stroke-linecap:round;stroke-linejoin:round"></path><path d="M193.09,323.27l-4.46.29s3,2.68.3,6.54" style="fill:none;stroke:#263238;stroke-linecap:round;stroke-linejoin:round"></path><path d="M177.7,272.76s1.91-.26,4.09,3.19a6.73,6.73,0,0,0,2.15-3.19" style="fill:none;stroke:#263238;stroke-linecap:round;stroke-linejoin:round"></path><path d="M161.35,249.57a15.91,15.91,0,0,1,5.14,2.16c.8.62,2.27-.47,2.88-1.27h0" style="fill:none;stroke:#263238;stroke-linecap:round;stroke-linejoin:round"></path><path d="M149.45,241.24a5.89,5.89,0,0,1,2.38.6,18.76,18.76,0,0,1,2.68,1.78,4.08,4.08,0,0,0,2.38-2.38" style="fill:none;stroke:#263238;stroke-linecap:round;stroke-linejoin:round"></path><path d="M129.83,248.38s2-.21,3,.59c1.43,1.22.6,1.79.6,1.79s2.43-.86,2.67-2.09" style="fill:none;stroke:#263238;stroke-linecap:round;stroke-linejoin:round"></path><path d="M162.83,282.57a13.65,13.65,0,0,1,4.16,4.76" style="fill:none;stroke:#263238;stroke-linecap:round;stroke-linejoin:round"></path><path d="M161.05,283.16a25.22,25.22,0,0,0,3.86,3.57" style="fill:none;stroke:#263238;stroke-linecap:round;stroke-linejoin:round"></path><line x1="167.29" y1="283.46" x2="169.37" y2="286.14" style="fill:none;stroke:#263238;stroke-linecap:round;stroke-linejoin:round"></line><line x1="172.28" y1="326.54" x2="174.36" y2="330.1" style="fill:none;stroke:#263238;stroke-linecap:round;stroke-linejoin:round"></line><line x1="174.96" y1="332.19" x2="175.55" y2="333.37" style="fill:none;stroke:#263238;stroke-linecap:round;stroke-linejoin:round"></line><path d="M177,327.43a28,28,0,0,1,.59,7.43" style="fill:none;stroke:#263238;stroke-linecap:round;stroke-linejoin:round"></path><path d="M145.29,265s3-.3,5.35,3.27" style="fill:none;stroke:#263238;stroke-linecap:round;stroke-linejoin:round"></path><line x1="146.78" y1="268.59" x2="149.45" y2="270.08" style="fill:none;stroke:#263238;stroke-linecap:round;stroke-linejoin:round"></line><line x1="147.67" y1="264.14" x2="149.45" y2="265.32" style="fill:none;stroke:#263238;stroke-linecap:round;stroke-linejoin:round"></line><path d="M129.53,260.86a6.27,6.27,0,0,1,5.65,1.49" style="fill:none;stroke:#263238;stroke-linecap:round;stroke-linejoin:round"></path><path d="M130.72,262.65a23.1,23.1,0,0,0,4.16,1.49" style="fill:none;stroke:#263238;stroke-linecap:round;stroke-linejoin:round"></path><line x1="134.29" y1="259.38" x2="136.37" y2="259.97" style="fill:none;stroke:#263238;stroke-linecap:round;stroke-linejoin:round"></line><path d="M109.91,265.92a13.93,13.93,0,0,1,5.65,0" style="fill:none;stroke:#263238;stroke-linecap:round;stroke-linejoin:round"></path><line x1="116.15" y1="264.14" x2="119.13" y2="265.32" style="fill:none;stroke:#263238;stroke-linecap:round;stroke-linejoin:round"></line><line x1="129.82" y1="284.36" x2="123.44" y2="296.51" style="fill:none;stroke:#263238;stroke-linecap:round;stroke-linejoin:round"></line></g></svg>